<svg width="21" height="21" viewBox="0 0 21 21" fill="none" xmlns="http://www.w3.org/2000/svg">
<path d="M8.63757 8.84324C8.35827 8.84324 8.09026 8.95427 7.89268 9.15176C7.69519 9.34934 7.58424 9.61726 7.58424 9.89656C7.58424 10.176 7.69519 10.444 7.89277 10.6414C8.09026 10.839 8.35818 10.9499 8.63757 10.9499C8.91696 10.9499 9.18479 10.8389 9.38228 10.6414C9.57986 10.444 9.69081 10.176 9.69081 9.89656C9.69081 9.61726 9.57986 9.34934 9.38237 9.15176C9.18479 8.95427 8.91704 8.84324 8.63757 8.84324ZM12.3935 8.84324C12.1635 8.82372 11.9329 8.87421 11.732 8.98796C11.5311 9.10171 11.3692 9.2733 11.2676 9.48059C11.1659 9.68787 11.1291 9.92097 11.1622 10.1495C11.1952 10.3779 11.2964 10.591 11.4526 10.7611C11.6089 10.931 11.8128 11.05 12.0376 11.1021C12.2624 11.1543 12.4978 11.1374 12.713 11.0536C12.928 10.9697 13.1128 10.8229 13.243 10.6323C13.3733 10.4417 13.4431 10.2162 13.4431 9.98546C13.4491 9.84143 13.4268 9.69785 13.3774 9.56249C13.328 9.42721 13.2523 9.30296 13.1549 9.19682C13.0575 9.09077 12.94 9.00494 12.8094 8.9443C12.6787 8.88357 12.5374 8.84927 12.3935 8.84324ZM17.3944 0.209961H3.60588C3.32816 0.210661 3.05332 0.265961 2.79694 0.372886C2.54066 0.479723 2.30791 0.636086 2.11199 0.832873C1.91617 1.02975 1.76094 1.26329 1.65533 1.5201C1.54963 1.77691 1.49564 2.05201 1.49634 2.32974V16.2419C1.49564 16.5195 1.54963 16.7947 1.65533 17.0515C1.76094 17.3082 1.91617 17.5418 2.11208 17.7386C2.30791 17.9354 2.54066 18.0917 2.79703 18.1986C3.05332 18.3055 3.32816 18.3608 3.60588 18.3616H15.2747L14.7292 16.4578L16.0465 17.6823L17.2916 18.8349L19.5038 20.79V2.32974C19.5045 2.05201 19.4506 1.77691 19.3449 1.5201C19.2392 1.26329 19.0841 1.02975 18.8882 0.832961C18.6922 0.636086 18.4595 0.479723 18.2032 0.372886C17.947 0.265961 17.6721 0.210661 17.3944 0.209961ZM13.4224 13.6486C13.4224 13.6486 13.0519 13.2062 12.7432 12.8152C13.4892 12.6397 14.1489 12.2059 14.6058 11.5907C14.2356 11.8371 13.8386 12.0408 13.4224 12.1978C12.9437 12.4021 12.4431 12.5506 11.9304 12.6403C11.0492 12.8025 10.1454 12.799 9.26538 12.6301C8.74869 12.5289 8.24233 12.3809 7.75259 12.1876C7.49447 12.0883 7.24352 11.9714 7.00149 11.8377C6.97052 11.8171 6.93981 11.8068 6.90892 11.7862C6.89343 11.7786 6.87943 11.7681 6.86771 11.7554C6.68256 11.6526 6.57948 11.5804 6.57948 11.5804C7.01996 12.1827 7.65687 12.6121 8.38032 12.7946C8.07171 13.1858 7.69099 13.6487 7.69099 13.6487C7.07972 13.6652 6.47378 13.5311 5.92656 13.2584C5.37924 12.9857 4.90744 12.5826 4.55254 12.0847C4.58597 9.99859 5.09259 7.94732 6.03427 6.08559C6.86289 5.43467 7.87326 5.0572 8.92571 5.00514L9.02852 5.1286C8.03837 5.3736 7.11437 5.83385 6.32232 6.47662C6.32232 6.47662 6.54877 6.35316 6.92939 6.17816C7.66912 5.8405 8.45749 5.62175 9.26538 5.52996C9.32304 5.51797 9.38149 5.51106 9.44038 5.50931C10.13 5.41954 10.8278 5.41262 11.5189 5.48884C12.6059 5.61291 13.6581 5.94847 14.6163 6.47662C13.8643 5.86456 12.991 5.4191 12.0542 5.16981L12.1981 5.00522C13.2506 5.05729 14.2608 5.43476 15.0896 6.08567C16.0313 7.94741 16.538 9.99867 16.5715 12.0848C16.2136 12.5821 15.7397 12.9847 15.191 13.2573C14.6422 13.5298 14.0351 13.6643 13.4224 13.6486Z" fill="#FEFEFE"/>
</svg>
