<svg width="36" height="36" viewBox="0 0 36 36" fill="none" xmlns="http://www.w3.org/2000/svg">
<g clip-path="url(#clip0_110_296)">
<path d="M14.8073 15.1598C14.3285 15.1598 13.869 15.3501 13.5303 15.6887C13.1918 16.0274 13.0016 16.4867 13.0016 16.9655C13.0016 17.4446 13.1918 17.9039 13.5305 18.2423C13.869 18.5811 14.3283 18.7712 14.8073 18.7712C15.2862 18.7712 15.7454 18.581 16.0839 18.2423C16.4226 17.9039 16.6128 17.4446 16.6128 16.9655C16.6128 16.4867 16.4226 16.0274 16.0841 15.6887C15.7454 15.3501 15.2864 15.1598 14.8073 15.1598ZM21.246 15.1598C20.8517 15.1263 20.4564 15.2129 20.112 15.4079C19.7676 15.6029 19.4901 15.897 19.3158 16.2524C19.1415 16.6077 19.0785 17.0073 19.1352 17.3991C19.1918 17.7906 19.3653 18.156 19.6331 18.4475C19.901 18.7388 20.2505 18.9428 20.6358 19.0322C21.0213 19.1216 21.4248 19.0926 21.7937 18.9489C22.1624 18.8052 22.479 18.5535 22.7024 18.2267C22.9257 17.9 23.0453 17.5134 23.0453 17.1179C23.0556 16.871 23.0174 16.6248 22.9328 16.3928C22.848 16.1609 22.7183 15.9479 22.5513 15.7659C22.3842 15.5841 22.1829 15.437 21.959 15.333C21.7349 15.2289 21.4928 15.1701 21.246 15.1598ZM29.819 0.359863H6.18155C5.70545 0.361063 5.2343 0.455863 4.7948 0.639163C4.35545 0.822313 3.95645 1.09036 3.6206 1.42771C3.2849 1.76521 3.0188 2.16556 2.83775 2.60581C2.65655 3.04606 2.564 3.51766 2.5652 3.99376V27.8432C2.564 28.3191 2.65655 28.7909 2.83775 29.2311C3.0188 29.6712 3.2849 30.0716 3.62075 30.4089C3.95645 30.7464 4.35545 31.0143 4.79495 31.1976C5.2343 31.3808 5.70545 31.4756 6.18155 31.4769H26.1852L25.2501 28.2134L27.5082 30.3125L29.6427 32.2883L33.4352 35.6399V3.99376C33.4364 3.51766 33.3438 3.04606 33.1626 2.60581C32.9816 2.16556 32.7156 1.76521 32.3798 1.42786C32.0438 1.09036 31.6449 0.822313 31.2056 0.639163C30.7662 0.455863 30.2951 0.361063 29.819 0.359863ZM23.0099 23.3976C23.0099 23.3976 22.3748 22.6392 21.8456 21.9689C23.1243 21.668 24.2553 20.9243 25.0385 19.8698C24.4038 20.2922 23.7233 20.6414 23.0099 20.9105C22.1892 21.2607 21.3311 21.5153 20.4521 21.669C18.9414 21.9471 17.3921 21.9411 15.8835 21.6515C14.9978 21.4781 14.1297 21.2243 13.2902 20.8929C12.8477 20.7228 12.4175 20.5223 12.0026 20.2932C11.9495 20.2578 11.8968 20.2401 11.8439 20.2049C11.8173 20.1918 11.7933 20.1738 11.7732 20.1521C11.4558 19.9758 11.2791 19.8521 11.2791 19.8521C12.0342 20.8845 13.1261 21.6207 14.3663 21.9336C13.8372 22.6041 13.1846 23.3978 13.1846 23.3978C12.1367 23.426 11.0979 23.1962 10.1598 22.7286C9.2216 22.2612 8.4128 21.5702 7.8044 20.7165C7.8617 17.1404 8.7302 13.6239 10.3445 10.4324C11.765 9.31651 13.497 8.66941 15.3012 8.58016L15.4775 8.79181C13.7801 9.21181 12.1961 10.0008 10.8383 11.1027C10.8383 11.1027 11.2265 10.8911 11.879 10.5911C13.1471 10.0122 14.4986 9.63721 15.8835 9.47986C15.9824 9.45931 16.0826 9.44746 16.1835 9.44446C17.3657 9.29056 18.5619 9.27871 19.7468 9.40936C21.6101 9.62206 23.414 10.1973 25.0565 11.1027C23.7674 10.0535 22.2704 9.28981 20.6643 8.86246L20.9111 8.58031C22.7153 8.66956 24.4472 9.31666 25.868 10.4325C27.4823 13.6241 28.3509 17.1405 28.4082 20.7167C27.7947 21.5693 26.9823 22.2594 26.0417 22.7268C25.1009 23.1939 24.0602 23.4245 23.0099 23.3976Z" fill="#261F1F"/>
</g>
<defs>
<clipPath id="clip0_110_296">
<rect width="36" height="36" fill="white"/>
</clipPath>
</defs>
</svg>
