<svg width="21" height="21" viewBox="0 0 21 21" fill="none" xmlns="http://www.w3.org/2000/svg">
<g clip-path="url(#clip0_90_2900)">
<path d="M10.5 7.94802C9.99526 7.94802 9.50185 8.09774 9.0822 8.37809C8.66255 8.65861 8.33547 9.05709 8.14227 9.52337C7.94916 9.98966 7.89859 10.5028 7.99711 10.9978C8.09555 11.4928 8.33862 11.9476 8.69554 12.3044C9.05236 12.6614 9.5071 12.9045 10.0022 13.0028C10.4971 13.1012 11.0103 13.0508 11.4765 12.8576C11.9428 12.6644 12.3414 12.3374 12.6217 11.9177C12.9023 11.4981 13.0519 11.0047 13.0519 10.5C13.0519 10.1648 12.9859 9.83295 12.8576 9.52337C12.7294 9.2138 12.5414 8.93249 12.3044 8.69554C12.0674 8.4585 11.7861 8.27055 11.4765 8.14227C11.167 8.01409 10.8351 7.94802 10.5 7.94802ZM20.7179 5.42697C20.7125 4.63239 20.5661 3.84497 20.2858 3.10149C20.0792 2.55741 19.7596 2.0633 19.3481 1.65179C18.9366 1.24027 18.4425 0.920723 17.8984 0.714136C17.155 0.433698 16.3675 0.287398 15.5729 0.281973C14.2455 0.209961 13.8545 0.209961 10.5 0.209961C7.14539 0.209961 6.75444 0.209961 5.42697 0.281973C4.63239 0.287398 3.84497 0.433698 3.10149 0.714136C2.55741 0.920723 2.0633 1.24027 1.65179 1.65179C1.24027 2.0633 0.920723 2.55741 0.714136 3.10149C0.433698 3.84497 0.287398 4.63239 0.281973 5.42697C0.209961 6.75444 0.209961 7.14539 0.209961 10.5C0.209961 13.8545 0.209961 14.2455 0.281973 15.5729C0.293086 16.3704 0.439211 17.1602 0.714136 17.9088C0.919761 18.4503 1.23914 18.9416 1.65056 19.3494C2.06032 19.7633 2.55549 20.083 3.10149 20.2858C3.84497 20.5661 4.63239 20.7125 5.42697 20.7179C6.75444 20.79 7.14539 20.79 10.5 20.79C13.8545 20.79 14.2455 20.79 15.5729 20.7179C16.3675 20.7125 17.155 20.5661 17.8984 20.2858C18.4444 20.083 18.9396 19.7633 19.3494 19.3494C19.7609 18.9416 20.0802 18.4503 20.2858 17.9088C20.566 17.1616 20.7122 16.3709 20.7179 15.5729C20.79 14.2455 20.79 13.8545 20.79 10.5C20.79 7.14539 20.79 6.75444 20.7179 5.42697ZM18.1042 13.659C18.0712 14.294 17.9357 14.9195 17.703 15.5112C17.5032 16.0048 17.2062 16.4531 16.8298 16.8298C16.4531 17.2063 16.0048 17.5032 15.5112 17.703C14.9139 17.9228 14.2849 18.0444 13.6487 18.0631H7.35119C6.71506 18.0444 6.08602 17.9228 5.48875 17.703C4.97845 17.5133 4.51767 17.2108 4.14072 16.818C3.76789 16.4489 3.47992 16.0029 3.29696 15.5112C3.07629 14.9145 2.95799 14.2849 2.94714 13.6487V7.35119C2.95799 6.71515 3.07629 6.08541 3.29696 5.48875C3.48657 4.97845 3.78915 4.51767 4.18194 4.14072C4.55267 3.7699 4.99814 3.48229 5.48875 3.29696C6.08602 3.07716 6.71506 2.95554 7.35119 2.93681H13.6487C14.2849 2.95554 14.9139 3.07716 15.5112 3.29696C16.0215 3.48657 16.4822 3.78915 16.8592 4.18194C17.2319 4.5511 17.52 4.997 17.703 5.48875C17.9228 6.08602 18.0444 6.71506 18.0631 7.35119V10.5C18.0631 12.6197 18.1351 12.8358 18.1042 13.6487V13.659ZM16.4578 6.00325C16.3353 5.67084 16.1421 5.36896 15.8917 5.11854C15.6413 4.86802 15.3393 4.67482 15.007 4.55232C14.5506 4.39412 14.0699 4.31756 13.587 4.32596H7.41296C6.9276 4.33069 6.44679 4.42125 5.99292 4.59354C5.66567 4.71044 5.36704 4.89576 5.11687 5.137C4.86671 5.37832 4.67071 5.67005 4.54209 5.99292C4.39264 6.45125 4.31957 6.93101 4.32596 7.41296V13.587C4.3362 14.0718 4.42659 14.5516 4.59354 15.007C4.71604 15.3393 4.90915 15.6413 5.15966 15.8917C5.41017 16.1421 5.71205 16.3353 6.04437 16.4578C6.48345 16.6194 6.94545 16.7097 7.41296 16.7254H13.587C14.0723 16.7207 14.5531 16.6301 15.007 16.4578C15.3393 16.3353 15.6413 16.1421 15.8917 15.8917C16.1421 15.6413 16.3353 15.3393 16.4578 15.007C16.6301 14.5531 16.7207 14.0723 16.7254 13.587V7.41296C16.7258 6.92707 16.6349 6.44539 16.4578 5.99292V6.00325ZM10.5 14.4307C9.98424 14.4307 9.47367 14.329 8.99732 14.1313C8.52097 13.9336 8.08829 13.644 7.72411 13.2788C7.35994 12.9136 7.07136 12.4803 6.87492 12.0035C6.67857 11.5266 6.57812 11.0157 6.57944 10.5C6.57944 9.72217 6.81026 8.96171 7.24269 8.31509C7.67502 7.66846 8.28954 7.16464 9.00844 6.8674C9.72725 6.57025 10.5182 6.49299 11.2809 6.6455C12.0436 6.79801 12.744 7.17339 13.2934 7.72411C13.8426 8.27492 14.2163 8.97624 14.3668 9.73941C14.5173 10.5027 14.438 11.2933 14.1388 12.0113C13.8398 12.7294 13.3343 13.3426 12.6866 13.7733C12.0388 14.2039 11.2778 14.4328 10.5 14.4307ZM14.616 7.34095C14.3885 7.31689 14.178 7.20944 14.025 7.03942C13.872 6.86941 13.7873 6.64874 13.7873 6.42001C13.7873 6.19129 13.8719 5.97061 14.025 5.80051C14.178 5.63041 14.3885 5.52314 14.616 5.49899C14.8435 5.52314 15.0539 5.6305 15.2069 5.80051C15.36 5.97061 15.4446 6.1912 15.4446 6.42001C15.4446 6.64882 15.36 6.86932 15.2069 7.03942C15.0539 7.20952 14.8435 7.31689 14.616 7.34095Z" fill="#FEFEFE"/>
</g>
<defs>
<clipPath id="clip0_90_2900">
<rect width="21" height="21" fill="white"/>
</clipPath>
</defs>
</svg>
