<svg width="36" height="36" viewBox="0 0 36 36" fill="none" xmlns="http://www.w3.org/2000/svg">
<g clip-path="url(#clip0_110_294)">
<path d="M18.0001 13.6251C17.1349 13.6251 16.2891 13.8818 15.5697 14.3624C14.8503 14.8433 14.2896 15.5264 13.9584 16.3257C13.6273 17.1251 13.5406 18.0048 13.7095 18.8534C13.8783 19.7019 14.295 20.4815 14.9068 21.0932C15.5185 21.7052 16.2981 22.1219 17.1468 22.2905C17.9952 22.4592 18.8749 22.3727 19.6743 22.0416C20.4736 21.7104 21.1569 21.1497 21.6375 20.4303C22.1184 19.7109 22.3749 18.8651 22.3749 17.9999C22.3749 17.4254 22.2618 16.8564 22.0419 16.3257C21.822 15.795 21.4998 15.3128 21.0934 14.9066C20.6872 14.5002 20.205 14.178 19.6743 13.9581C19.1436 13.7384 18.5746 13.6251 18.0001 13.6251ZM35.5167 9.30331C35.5074 7.94116 35.2564 6.59131 34.7758 5.31676C34.4217 4.38406 33.8739 3.53701 33.1684 2.83156C32.463 2.12611 31.6159 1.57831 30.6832 1.22416C29.4087 0.743413 28.0588 0.492613 26.6967 0.483313C24.421 0.359863 23.7508 0.359863 18.0001 0.359863C12.2494 0.359863 11.5792 0.359863 9.30356 0.483313C7.94141 0.492613 6.59156 0.743413 5.31701 1.22416C4.38431 1.57831 3.53726 2.12611 2.83181 2.83156C2.12636 3.53701 1.57856 4.38406 1.22441 5.31676C0.743657 6.59131 0.492857 7.94116 0.483557 9.30331C0.360107 11.579 0.360107 12.2492 0.360107 17.9999C0.360107 23.7506 0.360107 24.4208 0.483557 26.6964C0.502607 28.0635 0.753107 29.4174 1.22441 30.7007C1.57691 31.629 2.12441 32.4713 2.82971 33.1703C3.53216 33.8799 4.38101 34.4279 5.31701 34.7756C6.59156 35.2562 7.94141 35.5071 9.30356 35.5164C11.5792 35.6399 12.2494 35.6399 18.0001 35.6399C23.7508 35.6399 24.421 35.6399 26.6967 35.5164C28.0588 35.5071 29.4087 35.2562 30.6832 34.7756C31.6192 34.4279 32.4681 33.8799 33.1705 33.1703C33.876 32.4713 34.4233 31.629 34.7758 30.7007C35.2561 29.4198 35.5068 28.0644 35.5167 26.6964C35.6401 24.4208 35.6401 23.7506 35.6401 17.9999C35.6401 12.2492 35.6401 11.579 35.5167 9.30331ZM31.036 23.4153C30.9795 24.5039 30.7471 25.5762 30.3481 26.5905C30.0057 27.4368 29.4966 28.2053 28.8513 28.851C28.2055 29.4965 27.4371 30.0054 26.5908 30.3479C25.5669 30.7247 24.4887 30.9332 23.398 30.9653H12.6022C11.5117 30.9332 10.4334 30.7247 9.40946 30.3479C8.53466 30.0228 7.74476 29.5041 7.09856 28.8308C6.45941 28.1981 5.96576 27.4335 5.65211 26.5905C5.27381 25.5677 5.07101 24.4883 5.05241 23.3978V12.602C5.07101 11.5116 5.27381 10.4321 5.65211 9.40921C5.97716 8.53441 6.49586 7.74451 7.16921 7.09831C7.80476 6.46261 8.56841 5.96956 9.40946 5.65186C10.4334 5.27506 11.5117 5.06656 12.6022 5.03446H23.398C24.4887 5.06656 25.5669 5.27506 26.5908 5.65186C27.4656 5.97691 28.2555 6.49561 28.9017 7.16896C29.5407 7.80181 30.0345 8.56621 30.3481 9.40921C30.7249 10.4331 30.9334 11.5115 30.9655 12.602V17.9999C30.9655 21.6338 31.089 22.0041 31.036 23.3978V23.4153ZM28.2136 10.2912C28.0036 9.72136 27.6724 9.20386 27.2431 8.77456C26.8138 8.34511 26.2962 8.01391 25.7265 7.80391C24.9441 7.53271 24.12 7.40146 23.2921 7.41586H12.7081C11.8761 7.42396 11.0518 7.57921 10.2738 7.87456C9.71276 8.07496 9.20081 8.39266 8.77196 8.80621C8.34311 9.21991 8.00711 9.72001 7.78661 10.2735C7.53041 11.0592 7.40516 11.8817 7.41611 12.7079V23.2919C7.43366 24.123 7.58861 24.9456 7.87481 25.7262C8.08481 26.2959 8.41586 26.8136 8.84531 27.2429C9.27476 27.6722 9.79226 28.0034 10.362 28.2134C11.1147 28.4903 11.9067 28.6451 12.7081 28.6721H23.2921C24.1242 28.664 24.9484 28.5087 25.7265 28.2134C26.2962 28.0034 26.8138 27.6722 27.2431 27.2429C27.6724 26.8136 28.0036 26.2959 28.2136 25.7262C28.509 24.9482 28.6642 24.1239 28.6723 23.2919V12.7079C28.6729 11.8749 28.5172 11.0492 28.2136 10.2735V10.2912ZM18.0001 24.7383C17.116 24.7383 16.2408 24.5639 15.4242 24.225C14.6076 23.8862 13.8658 23.3897 13.2415 22.7636C12.6172 22.1376 12.1225 21.3947 11.7858 20.5773C11.4492 19.7598 11.277 18.884 11.2792 17.9999C11.2792 16.6665 11.6749 15.3629 12.4162 14.2544C13.1574 13.1459 14.2108 12.2822 15.4432 11.7726C16.6755 11.2632 18.0313 11.1308 19.3389 11.3922C20.6464 11.6537 21.847 12.2972 22.7889 13.2413C23.7304 14.1855 24.3709 15.3878 24.6289 16.6961C24.8869 18.0045 24.751 19.3599 24.2382 20.5908C23.7256 21.8217 22.8591 22.8729 21.7486 23.6114C20.6382 24.3495 19.3336 24.7419 18.0001 24.7383ZM25.0561 12.5844C24.6661 12.5432 24.3054 12.359 24.043 12.0675C23.7808 11.7761 23.6356 11.3978 23.6356 11.0057C23.6356 10.6136 23.7807 10.2353 24.043 9.94366C24.3054 9.65206 24.6661 9.46816 25.0561 9.42676C25.4461 9.46816 25.8069 9.65221 26.0692 9.94366C26.3316 10.2353 26.4766 10.6134 26.4766 11.0057C26.4766 11.3979 26.3316 11.7759 26.0692 12.0675C25.8069 12.3591 25.4461 12.5432 25.0561 12.5844Z" fill="#261F1F"/>
</g>
<defs>
<clipPath id="clip0_110_294">
<rect width="36" height="36" fill="white"/>
</clipPath>
</defs>
</svg>
