<svg width="21" height="21" viewBox="0 0 21 21" fill="none" xmlns="http://www.w3.org/2000/svg">
<g clip-path="url(#clip0_90_2904)">
<path d="M19.2156 0.210113H1.78458C1.58867 0.207313 1.39407 0.243275 1.21198 0.315725C1.02999 0.388263 0.863998 0.495888 0.723473 0.632475C0.583035 0.76915 0.47086 0.932075 0.393423 1.11206C0.315898 1.29205 0.274685 1.4856 0.271973 1.68151V19.3184C0.274685 19.5143 0.315898 19.7078 0.393423 19.8878C0.470948 20.0678 0.583035 20.2307 0.723473 20.3674C0.863998 20.5041 1.02999 20.6117 1.21198 20.6842C1.39407 20.7567 1.58867 20.7926 1.78458 20.7898H19.2156C19.4115 20.7926 19.6061 20.7567 19.7881 20.6842C19.9703 20.6117 20.1362 20.5041 20.2767 20.3674C20.4172 20.2307 20.5294 20.0677 20.6068 19.8878C20.6843 19.7078 20.7255 19.5143 20.7282 19.3184V1.68151C20.7255 1.4856 20.6843 1.29214 20.6068 1.11206C20.5294 0.932075 20.4172 0.76915 20.2767 0.632475C20.1362 0.495888 19.9703 0.388175 19.7881 0.315725C19.6061 0.243275 19.4115 0.207313 19.2156 0.210113ZM6.47677 17.4353H3.38977V8.17445H6.47677V17.4353ZM4.93327 6.87788C4.50758 6.87788 4.09931 6.70883 3.79822 6.40774C3.49722 6.10674 3.32808 5.69846 3.32808 5.27269C3.32808 4.847 3.49722 4.43864 3.79822 4.13764C4.09931 3.83655 4.50758 3.6675 4.93327 3.6675C5.15937 3.64186 5.38827 3.66426 5.6051 3.73321C5.82192 3.80216 6.02168 3.91618 6.19135 4.06773C6.3611 4.21928 6.49681 4.40495 6.58982 4.61259C6.68275 4.82023 6.73087 5.04519 6.73087 5.27269C6.73087 5.50019 6.68275 5.72515 6.58982 5.93279C6.49681 6.14043 6.3611 6.3261 6.19135 6.47765C6.02168 6.6292 5.82192 6.74321 5.6051 6.81216C5.38827 6.8812 5.15937 6.90351 4.93327 6.87788ZM17.6104 17.4353H14.5234V12.4653C14.5234 11.2202 14.081 10.4074 12.9594 10.4074C12.6123 10.4099 12.2743 10.5187 11.9909 10.7193C11.7076 10.9198 11.4925 11.2024 11.3748 11.5289C11.2942 11.7708 11.2593 12.0255 11.2719 12.28V17.425H8.18486V8.16413H11.2719V9.47094C11.5522 8.98435 11.9601 8.58343 12.4514 8.31148C12.9429 8.03953 13.4992 7.90679 14.0604 7.92744C16.1184 7.92744 17.6104 9.25481 17.6104 12.1051V17.4353Z" fill="#FEFEFE"/>
</g>
<defs>
<clipPath id="clip0_90_2904">
<rect width="21" height="21" fill="white"/>
</clipPath>
</defs>
</svg>
