<svg width="36" height="36" viewBox="0 0 36 36" fill="none" xmlns="http://www.w3.org/2000/svg">
<g clip-path="url(#clip0_110_298)">
<path d="M32.9409 0.360124H3.05911C2.72326 0.355324 2.38966 0.416974 2.07751 0.541174C1.76551 0.665524 1.48096 0.850024 1.24006 1.08417C0.999314 1.31847 0.807014 1.59777 0.674264 1.90632C0.541364 2.21487 0.470714 2.54667 0.466064 2.88252V33.1171C0.470714 33.453 0.541364 33.7848 0.674264 34.0933C0.807164 34.4019 0.999314 34.6812 1.24006 34.9155C1.48096 35.1498 1.76551 35.3343 2.07751 35.4585C2.38966 35.5828 2.72326 35.6443 3.05911 35.6395H32.9409C33.2768 35.6443 33.6104 35.5828 33.9224 35.4585C34.2347 35.3343 34.5191 35.1498 34.76 34.9155C35.0007 34.6812 35.193 34.4017 35.3258 34.0933C35.4587 33.7848 35.5293 33.453 35.534 33.1171V2.88252C35.5293 2.54667 35.4587 2.21502 35.3258 1.90632C35.193 1.59777 35.0007 1.31847 34.76 1.08417C34.5191 0.850024 34.2347 0.665374 33.9224 0.541174C33.6104 0.416974 33.2768 0.355324 32.9409 0.360124ZM11.1029 29.889H5.81086V14.0133H11.1029V29.889ZM8.45686 11.7906C7.72711 11.7906 7.02721 11.5008 6.51106 10.9846C5.99506 10.4686 5.70511 9.76872 5.70511 9.03882C5.70511 8.30907 5.99506 7.60902 6.51106 7.09302C7.02721 6.57687 7.72711 6.28707 8.45686 6.28707C8.84446 6.24312 9.23686 6.28152 9.60856 6.39972C9.98026 6.51792 10.3227 6.71337 10.6136 6.97317C10.9046 7.23297 11.1372 7.55127 11.2967 7.90722C11.456 8.26317 11.5385 8.64882 11.5385 9.03882C11.5385 9.42882 11.456 9.81447 11.2967 10.1704C11.1372 10.5264 10.9046 10.8447 10.6136 11.1045C10.3227 11.3643 9.98026 11.5597 9.60856 11.6779C9.23686 11.7963 8.84446 11.8345 8.45686 11.7906ZM30.189 29.889H24.8972V21.369C24.8972 19.2346 24.1386 17.8411 22.2159 17.8411C21.6209 17.8455 21.0414 18.0321 20.5557 18.3759C20.07 18.7197 19.7013 19.204 19.4994 19.7638C19.3613 20.1784 19.3014 20.6151 19.323 21.0514V29.8714H14.031V13.9956H19.323V16.2358C19.8036 15.4017 20.5029 14.7144 21.3452 14.2482C22.1877 13.782 23.1413 13.5544 24.1034 13.5898C27.6314 13.5898 30.189 15.8653 30.189 20.7516V29.889Z" fill="#261F1F"/>
</g>
<defs>
<clipPath id="clip0_110_298">
<rect width="36" height="36" fill="white"/>
</clipPath>
</defs>
</svg>
